<?xml version="1.0" standalone="no"?>
<!DOCTYPE svg PUBLIC "-//W3C//DTD SVG 20010904//EN"
 "http://www.w3.org/TR/2001/REC-SVG-20010904/DTD/svg10.dtd">
<svg version="1.0" xmlns="http://www.w3.org/2000/svg"
 width="1014.000000pt" height="760.000000pt" viewBox="0 0 1014.000000 760.000000"
 preserveAspectRatio="xMidYMid meet">

<g transform="translate(0.000000,760.000000) scale(0.100000,-0.100000)"
fill="#000000" stroke="none">
<path d="M4800 7404 c-1228 -89 -2297 -774 -2883 -1849 -219 -403 -353 -834
-409 -1320 -16 -141 -16 -586 0 -730 51 -441 164 -828 354 -1210 444 -890
1233 -1550 2177 -1821 849 -244 1716 -173 2528 206 406 191 819 506 1128 861
475 548 758 1184 851 1914 22 173 26 625 6 785 -73 599 -251 1097 -558 1565
-422 644 -1037 1132 -1749 1390 -395 143 -724 203 -1150 209 -132 2 -265 2
-295 0z m549 -165 c706 -65 1397 -362 1912 -822 615 -549 1004 -1263 1118
-2052 127 -870 -85 -1749 -592 -2460 -221 -309 -533 -616 -842 -827 -524 -358
-1108 -555 -1742 -588 -979 -51 -1915 317 -2598 1021 -542 559 -874 1275 -945
2039 -16 168 -13 511 5 684 72 678 355 1329 803 1847 721 834 1779 1259 2881
1158z"/>
<path d="M4775 6884 c-16 -2 -73 -9 -125 -15 -231 -26 -494 -94 -725 -185
-989 -393 -1699 -1266 -1875 -2304 -64 -382 -51 -829 36 -1199 153 -650 530
-1250 1049 -1666 367 -294 826 -512 1270 -603 242 -50 317 -57 620 -57 305 0
377 6 605 52 270 54 484 129 755 263 306 152 527 312 780 565 88 88 197 207
242 265 330 427 529 888 615 1424 20 124 23 177 23 441 0 323 -10 421 -61 655
-281 1265 -1344 2220 -2622 2355 -122 13 -501 19 -587 9z m528 -159 c522 -55
977 -223 1379 -509 650 -463 1068 -1143 1189 -1936 33 -210 33 -610 0 -820
-79 -516 -280 -978 -599 -1380 -101 -127 -333 -358 -459 -458 -671 -530 -1523
-732 -2364 -562 -422 86 -815 268 -1184 549 -128 98 -369 336 -476 471 -331
420 -532 892 -606 1420 -24 174 -24 566 1 740 74 533 276 1007 604 1420 97
122 330 355 452 452 309 246 652 421 1029 524 334 92 706 124 1034 89z"/>
<path d="M3166 5659 c-18 -14 -26 -30 -26 -52 0 -20 141 -345 384 -885 l384
-852 -384 -854 c-234 -520 -384 -866 -384 -884 0 -21 8 -37 26 -51 l27 -21
1759 2 1760 3 19 24 c18 22 19 46 19 503 l0 479 -25 24 c-29 30 -30 30 -135 4
-106 -27 -258 -23 -363 11 -73 23 -97 20 -127 -13 -18 -19 -20 -36 -20 -194
l0 -173 -995 0 c-681 0 -995 3 -995 10 0 6 111 257 246 558 136 301 247 558
247 572 0 14 -111 271 -247 572 -135 301 -246 552 -246 558 0 7 310 10 995 10
l995 0 0 -168 c0 -135 3 -172 16 -190 29 -42 48 -45 132 -20 102 30 309 33
388 5 31 -11 62 -15 78 -11 57 14 56 7 56 525 0 455 -1 478 -19 500 l-19 24
-1760 3 -1759 2 -27 -21z m3434 -496 l0 -358 -179 0 -180 0 -3 152 c-3 144 -4
153 -27 177 l-24 26 -1126 0 -1125 0 -23 -22 c-14 -13 -23 -33 -23 -50 0 -24
455 -1059 480 -1093 4 -5 15 -35 23 -65 14 -48 15 -62 3 -105 -7 -28 -124
-296 -260 -596 -151 -335 -246 -557 -246 -577 0 -21 8 -37 26 -51 27 -21 29
-21 1149 -21 l1122 0 24 26 c23 24 24 33 27 177 l3 152 180 0 179 0 0 -357 0
-358 -1630 0 c-896 0 -1630 3 -1630 6 0 4 159 360 354 793 195 432 359 803
364 824 7 24 7 48 2 62 -5 13 -169 379 -364 814 -196 435 -356 793 -356 796 0
3 734 5 1630 5 l1630 0 0 -357z"/>
<path d="M6324 4366 c-197 -39 -365 -219 -393 -420 -31 -219 79 -431 272 -526
205 -101 427 -66 585 92 203 203 202 514 0 716 -127 126 -285 173 -464 138z
m258 -178 c141 -66 219 -212 197 -373 -15 -110 -90 -213 -195 -264 -73 -37
-197 -41 -279 -10 -75 28 -155 102 -192 177 -38 78 -44 194 -13 274 23 62 90
144 146 179 92 57 235 64 336 17z"/>
<path d="M5033 4200 c-52 -21 -73 -116 -73 -329 0 -169 15 -275 45 -310 l23
-26 284 -3 c305 -2 319 0 347 50 13 23 13 32 -5 89 -27 90 -27 307 0 396 23
76 12 115 -36 132 -38 13 -553 14 -585 1z m449 -202 c-4 -29 -7 -87 -7 -128 0
-41 3 -99 7 -127 l7 -53 -183 0 -183 0 -7 46 c-3 26 -6 86 -6 134 0 48 3 108
6 134 l7 46 183 0 183 0 -7 -52z"/>
<path d="M7225 4203 c-59 -15 -71 -56 -43 -146 30 -97 30 -279 -1 -380 -21
-72 -18 -100 14 -127 27 -22 557 -28 608 -6 44 18 51 41 68 207 12 122 2 307
-22 394 -17 61 -38 65 -341 64 -145 -1 -272 -4 -283 -6z m489 -184 c3 -17 6
-84 6 -149 0 -65 -3 -132 -6 -149 l-6 -31 -183 0 -182 0 8 43 c4 23 8 85 8
137 0 52 -4 114 -8 138 l-8 42 182 0 183 0 6 -31z"/>
</g>
</svg>
